<?xml version="1.0" encoding="UTF-8"?>
<svg version="1.1" xmlns="http://www.w3.org/2000/svg" width="625" height="625">
<path d="M0 0 C1.43291942 -0.00258688 2.86583811 -0.00560094 4.29875582 -0.0090034 C8.22315228 -0.01703912 12.1475304 -0.01886106 16.0719341 -0.01960087 C20.31010192 -0.02145749 24.54826037 -0.02900801 28.78642273 -0.03573608 C38.04932471 -0.04929694 47.31222235 -0.05534101 56.57513261 -0.05974674 C62.36580067 -0.06251374 68.15646708 -0.066752 73.94713402 -0.07125092 C89.9983869 -0.08344211 106.04963847 -0.09374077 122.10089588 -0.09712601 C123.12753156 -0.09734557 124.15416724 -0.09756514 125.21191309 -0.09779136 C126.24093141 -0.09800964 127.26994973 -0.09822791 128.33015043 -0.09845281 C130.41514321 -0.09889626 132.500136 -0.09934283 134.58512878 -0.09979248 C135.61934543 -0.10001391 136.65356207 -0.10023534 137.71911862 -0.10046348 C154.45733123 -0.10440704 171.19550018 -0.12184822 187.93369595 -0.145152 C205.14300154 -0.168917 222.35228528 -0.18133025 239.56160754 -0.18249393 C249.2139964 -0.18340795 258.86632843 -0.18909107 268.51870155 -0.20731354 C276.74224329 -0.22278437 284.96571062 -0.22779419 293.18926416 -0.21957543 C297.37795582 -0.2156931 301.56649797 -0.21647876 305.75517082 -0.23063278 C350.59827603 -0.37319491 389.50677337 9.64030699 422.44377136 41.64044189 C447.84351878 66.93662959 462.94663126 102.374265 463.05949521 138.21892959 C463.05871517 139.55395788 463.05783642 140.88898611 463.05686951 142.22401428 C463.05945639 143.6569337 463.06247045 145.0898524 463.06587291 146.52277011 C463.07390863 150.44716656 463.07573056 154.37154468 463.07647038 158.29594839 C463.078327 162.53411621 463.08587751 166.77227465 463.09260559 171.01043701 C463.10616644 180.27333899 463.11221051 189.53623663 463.11661625 198.79914689 C463.11938325 204.58981495 463.12362151 210.38048136 463.12812042 216.1711483 C463.14031162 232.22240119 463.15061028 248.27365275 463.15399551 264.32491016 C463.15421508 265.35154584 463.15443465 266.37818152 463.15466087 267.43592737 C463.15487914 268.46494569 463.15509742 269.49396401 463.15532231 270.55416471 C463.15576577 272.63915749 463.15621233 274.72415028 463.15666199 276.80914307 C463.15688342 277.84335971 463.15710485 278.87757636 463.15733299 279.9431329 C463.16127654 296.68134551 463.17871773 313.41951447 463.20202151 330.15771023 C463.22578651 347.36701582 463.23819975 364.57629957 463.23936343 381.78562182 C463.24027746 391.43801069 463.24596057 401.09034271 463.26418304 410.74271584 C463.27965388 418.96625757 463.2846637 427.1897249 463.27644494 435.41327844 C463.27256261 439.6019701 463.27334826 443.79051225 463.28750229 447.9791851 C463.43006442 492.82229032 453.41656251 531.73078765 421.41642761 564.66778564 C396.12023992 590.06753306 360.68260451 605.17064554 324.83793992 605.28350949 C323.50291163 605.28272945 322.16788339 605.28185071 320.83285522 605.28088379 C319.39993581 605.28347067 317.96701711 605.28648473 316.5340994 605.28988719 C312.60970295 605.29792291 308.68532482 605.29974485 304.76092112 605.30048466 C300.5227533 605.30234128 296.28459486 605.30989179 292.0464325 605.31661987 C282.78353051 605.33018073 273.52063287 605.3362248 264.25772262 605.34063053 C258.46705455 605.34339753 252.67638815 605.34763579 246.88572121 605.3521347 C230.83446832 605.3643259 214.78321676 605.37462456 198.73195934 605.3780098 C197.70532366 605.37822936 196.67868799 605.37844893 195.62094213 605.37867515 C194.59192381 605.37889343 193.56290549 605.3791117 192.5027048 605.3793366 C190.41771201 605.37978005 188.33271923 605.38022662 186.24772644 605.38067627 C185.2135098 605.3808977 184.17929315 605.38111913 183.11373661 605.38134727 C166.375524 605.38529083 149.63735504 605.40273201 132.89915927 605.42603579 C115.68985368 605.44980079 98.48056994 605.46221403 81.27124768 605.46337771 C71.61885882 605.46429174 61.9665268 605.46997486 52.31415367 605.48819733 C44.09061194 605.50366816 35.86714461 605.50867798 27.64359107 605.50045922 C23.45489941 605.49657689 19.26635725 605.49736255 15.0776844 605.51151657 C-29.76542081 605.6540787 -68.67391814 595.64057679 -101.61091614 563.64044189 C-127.01066355 538.3442542 -142.11377604 502.90661879 -142.22663999 467.0619542 C-142.22585995 465.72692591 -142.2249812 464.39189767 -142.22401428 463.05686951 C-142.22660116 461.62395009 -142.22961522 460.19103139 -142.23301768 458.75811368 C-142.2410534 454.83371723 -142.24287534 450.90933911 -142.24361515 446.9849354 C-142.24547177 442.74676758 -142.25302229 438.50860914 -142.25975037 434.27044678 C-142.27331122 425.00754479 -142.27935529 415.74464715 -142.28376102 406.4817369 C-142.28652803 400.69106884 -142.29076628 394.90040243 -142.2952652 389.10973549 C-142.30745639 373.0584826 -142.31775505 357.00723104 -142.32114029 340.95597363 C-142.32135986 339.92933795 -142.32157942 338.90270227 -142.32180564 337.84495642 C-142.32202392 336.8159381 -142.3222422 335.78691978 -142.32246709 334.72671908 C-142.32291055 332.64172629 -142.32335711 330.55673351 -142.32380676 328.47174072 C-142.32402819 327.43752408 -142.32424962 326.40330743 -142.32447776 325.33775089 C-142.32842132 308.59953828 -142.3458625 291.86136932 -142.36916628 275.12317356 C-142.39293129 257.91386797 -142.40534453 240.70458422 -142.40650821 223.49526197 C-142.40742223 213.8428731 -142.41310535 204.19054108 -142.43132782 194.53816795 C-142.44679865 186.31462622 -142.45180847 178.09115889 -142.44358972 169.86760535 C-142.43970738 165.67891369 -142.44049304 161.49037154 -142.45464706 157.30169868 C-142.59720919 112.45859347 -132.58370729 73.55009614 -100.58357239 40.61309814 C-73.83821348 13.75824677 -37.59490825 -0.02722877 0 0 Z " fill="#5DAD45" transform="translate(152.0835723876953,9.85955810546875)"/>
<path d="M0 0 C1.08539063 -0.01224609 2.17078125 -0.02449219 3.2890625 -0.03710938 C14.96894813 -0.05826859 24.66584117 1.6815637 33.484375 9.92578125 C41.36642957 18.72480751 41.76224468 27.74094847 42.1875 39.0625 C42.23068359 40.13242188 42.27386719 41.20234375 42.31835938 42.3046875 C42.42392817 44.93217754 42.52603791 47.55975422 42.625 50.1875 C44.02685547 50.66316406 44.02685547 50.66316406 45.45703125 51.1484375 C65.23079352 58.08252528 82.14680194 68.02950119 97.625 82.1875 C99.39721841 81.31530874 101.16767655 80.43954085 102.9375 79.5625 C104.04351562 79.02109375 105.14953125 78.4796875 106.2890625 77.921875 C109.56890693 76.28741451 109.56890693 76.28741451 112.2734375 74.453125 C121.12005641 68.73684817 130.55979422 68.71254725 140.65625 70.8203125 C151.07111752 74.38836896 156.83786735 83.38359393 161.875 92.625 C162.37773437 93.51509766 162.88046875 94.40519531 163.3984375 95.32226562 C169.25406915 105.81488307 174.08489742 114.61048362 170.9296875 126.89453125 C166.57951666 138.79352795 159.36164584 144.15147523 148.625 150.1875 C147.85671875 150.64640625 147.0884375 151.1053125 146.296875 151.578125 C141.92341549 154.1875 141.92341549 154.1875 139.625 154.1875 C139.93244141 155.4559375 139.93244141 155.4559375 140.24609375 156.75 C140.51550781 157.884375 140.78492188 159.01875 141.0625 160.1875 C141.32933594 161.30125 141.59617187 162.415 141.87109375 163.5625 C145.77300496 182.32402125 145.55015126 204.96639813 139.2109375 223.13671875 C138.44185258 225.47304185 138.44185258 225.47304185 138.625 229.1875 C140.93399555 230.98238326 143.14156884 232.48769726 145.625 234 C147.00893409 234.88685419 148.39046748 235.77746623 149.76953125 236.671875 C150.77040771 237.31866211 150.77040771 237.31866211 151.79150391 237.97851562 C159.59066638 243.12118574 163.51041427 248.19526986 166.2109375 257.125 C166.71109941 259.61637255 166.79452942 261.95896066 166.8125 264.5 C166.82667969 265.40363281 166.84085937 266.30726563 166.85546875 267.23828125 C166.28272122 274.56750815 163.26031422 279.98343058 159.4375 286.0625 C158.94282227 286.8575293 158.44814453 287.65255859 157.93847656 288.47167969 C145.20651479 308.71159543 145.20651479 308.71159543 134.625 312.1875 C131.5390625 312.63671875 131.5390625 312.63671875 128.25 312.875 C127.16976563 312.96136719 126.08953125 313.04773438 124.9765625 313.13671875 C118.2148547 313.23916887 113.37534252 311.93122765 107.625 308.4375 C107.01414551 308.07986572 106.40329102 307.72223145 105.77392578 307.35375977 C102.54462634 305.43903095 99.47554968 303.41140722 96.5 301.125 C93.94677492 298.97311284 93.94677492 298.97311284 91.7890625 299.32421875 C88.87064003 300.48842699 86.65253705 302.19345287 84.125 304.0625 C55.95825641 324.1875 55.95825641 324.1875 41.625 324.1875 C41.63547363 324.76604736 41.64594727 325.34459473 41.65673828 325.94067383 C42.13282783 356.22659833 42.13282783 356.22659833 31.625 367.1875 C22.3842618 374.32488353 13.93739677 374.39834119 2.64306641 374.42773438 C0.39577802 374.43741054 -1.85058317 374.46845521 -4.09765625 374.5 C-15.54297093 374.58541695 -24.84896876 373.44428815 -33.375 365.1875 C-40.80520909 356.29101904 -41.66296634 347.40791239 -42 336.1875 C-42.03867187 335.12660156 -42.07734375 334.06570313 -42.1171875 332.97265625 C-42.21069694 330.37776933 -42.29644902 327.78287551 -42.375 325.1875 C-43.33277344 324.85878906 -44.29054688 324.53007812 -45.27734375 324.19140625 C-64.72800107 317.32414344 -82.27138754 307.35299989 -97.375 293.1875 C-102.2923802 294.97225803 -106.64677008 297.59326065 -111.11523438 300.265625 C-119.8547491 305.38516586 -128.44626173 306.42195204 -138.375 305.1875 C-149.02570728 302.10113722 -155.22553334 294.10621068 -160.46484375 284.78710938 C-161.01269531 283.78486328 -161.56054688 282.78261719 -162.125 281.75 C-162.68832031 280.75162109 -163.25164062 279.75324219 -163.83203125 278.72460938 C-169.53150673 268.47768006 -173.60280006 259.39043595 -170.71875 247.4765625 C-165.77129022 233.615145 -153.89450363 227.44725182 -141.375 221.1875 C-141.51761094 218.99978756 -141.66424461 216.81233718 -141.8125 214.625 C-141.89371094 213.40683594 -141.97492188 212.18867188 -142.05859375 210.93359375 C-142.31999728 207.26499153 -142.31999728 207.26499153 -142.8984375 203.97265625 C-145.09662676 186.51326777 -145.42494797 162.28739593 -137.375 146.1875 C-138.05820313 145.95289063 -138.74140625 145.71828125 -139.4453125 145.4765625 C-149.46315129 141.06871343 -160.50174259 132.70262225 -165.3125 122.6875 C-167.92654782 114.28283993 -167.83165599 104.16155255 -164.0625 96.1875 C-162.88882973 94.1544361 -161.65222028 92.15715963 -160.375 90.1875 C-159.7557666 89.21949463 -159.7557666 89.21949463 -159.12402344 88.23193359 C-151.62149644 76.59298084 -144.98602135 66.72450712 -131.375 62.1875 C-120.28698025 61.31813084 -113.56999613 62.80432636 -104.41015625 68.75 C-103.69585449 69.20971191 -102.98155273 69.66942383 -102.24560547 70.14306641 C-100.80422402 71.08023838 -99.37439054 72.03544556 -97.95751953 73.00927734 C-97.29478027 73.4470752 -96.63204102 73.88487305 -95.94921875 74.3359375 C-95.35713623 74.73989746 -94.76505371 75.14385742 -94.1550293 75.56005859 C-92.32447963 76.41830009 -92.32447963 76.41830009 -90.3125 75.42578125 C-87.63987246 73.7176705 -85.19407634 71.75611879 -82.6875 69.8125 C-76.06007065 64.89294357 -68.92766789 61.2521307 -61.5 57.6875 C-60.43048096 57.1713916 -59.36096191 56.6552832 -58.2590332 56.12353516 C-52.67777744 53.50398442 -47.42265978 51.41160463 -41.375 50.1875 C-41.38547363 49.53265625 -41.39594727 48.8778125 -41.40673828 48.203125 C-41.44865359 45.19795668 -41.47443809 42.19285016 -41.5 39.1875 C-41.51675781 38.15753906 -41.53351563 37.12757813 -41.55078125 36.06640625 C-41.61580533 25.85762558 -40.08925275 18.17361561 -33.375 10.1875 C-23.15894347 0.8261733 -13.28141135 0.00783102 0 0 Z " fill="#E3E4E5" transform="translate(312.375,124.8125)"/>
<path d="M0 0 C2.55128477 3.19224081 4.4383909 6.52935476 6.3359375 10.14453125 C6.98768216 11.37908454 7.63945754 12.61362163 8.29125977 13.84814453 C8.63069611 14.49414612 8.97013245 15.14014771 9.31985474 15.8057251 C14.59000806 25.82900037 19.93841599 35.79476468 25.5625 45.625 C30.354713 54.00727875 34.96616186 62.47594006 39.5 71 C44.54468255 80.48064585 49.70460845 89.88391995 55.02001953 99.21582031 C59.36951351 106.85878546 63.63492299 114.54604605 67.875 122.25 C69.23560443 124.72139417 70.59628312 127.19274745 71.95703125 129.6640625 C72.2939801 130.27608017 72.63092896 130.88809784 72.97808838 131.5186615 C76.49071065 137.8960587 80.02467566 144.26155292 83.5625 150.625 C84.17722168 151.73069336 84.79194336 152.83638672 85.42529297 153.97558594 C86.66378823 156.20286149 87.90239475 158.43007518 89.14111328 160.65722656 C92.2625835 166.27046142 95.38110267 171.8853353 98.5 177.5 C99.11447998 178.60593506 99.72895996 179.71187012 100.36206055 180.85131836 C103.23121488 186.01519504 106.10013055 191.17920236 108.96626282 196.34475708 C109.62711781 197.53532405 110.28840035 198.72565381 110.95011902 199.91574097 C112.56387266 202.81887969 114.16953041 205.7257784 115.76391602 208.63964844 C118.34954656 213.34833783 120.92201707 217.99523835 123.94140625 222.44140625 C132.54305486 235.33178688 131.6515279 249.3032302 128.85571289 264.15649414 C128.06183254 267.82027816 127.07303625 271.40913718 126 275 C125.79632812 275.69754395 125.59265625 276.39508789 125.3828125 277.11376953 C114.75854166 312.51980791 90.17327409 342.1020388 58 360 C36.38150338 371.50246625 15.16949342 376.41339806 -9.17895508 376.57861328 C-11.16492941 376.60237718 -13.15089146 376.62718754 -15.13684082 376.6529541 C-21.59761631 376.73080194 -28.05844301 376.77740323 -34.51953125 376.8203125 C-36.75526131 376.83641555 -38.99099117 376.85254808 -41.22672081 376.86870956 C-50.5236258 376.93343099 -59.82051667 376.98964715 -69.117589 377.02357674 C-82.39706953 377.07238677 -95.67393182 377.17231526 -108.95242578 377.34277928 C-118.3201105 377.45891699 -127.68709453 377.51747551 -137.05548018 377.53333843 C-142.64032013 377.5442806 -148.22235005 377.58013055 -153.80640602 377.67764664 C-159.05351208 377.76799608 -164.29611244 377.78680386 -169.54383087 377.75149536 C-171.46359535 377.7508342 -173.38357163 377.7756716 -175.3026104 377.82845688 C-189.41057622 378.1952867 -189.41057622 378.1952867 -193.74106574 374.52394247 C-196.83568119 370.95246171 -199.04888297 367.01382255 -201.10545576 362.77835822 C-202.31234191 360.37906279 -203.8022368 358.22775734 -205.36328125 356.046875 C-205.85054688 355.33595703 -206.3378125 354.62503906 -206.83984375 353.89257812 C-207.32582031 353.18552734 -207.81179688 352.47847656 -208.3125 351.75 C-209.42320239 350.13022568 -210.53387871 348.5104335 -211.64453125 346.890625 C-212.19963379 346.08173828 -212.75473633 345.27285156 -213.32666016 344.43945312 C-216.0548531 340.4621984 -218.77717718 336.48093208 -221.5 332.5 C-222.58330415 330.9166467 -223.66663751 329.33331338 -224.75 327.75 C-226.91666667 324.58333333 -229.08333333 321.41666667 -231.25 318.25 C-231.78608887 317.4664917 -232.32217773 316.6829834 -232.87451172 315.87573242 C-233.95949599 314.28997365 -235.04445687 312.70419887 -236.12939453 311.1184082 C-238.81227845 307.19705358 -241.49554807 303.2759641 -244.1796875 299.35546875 C-250.59988955 289.97693831 -257.00832242 280.59047423 -263.40917969 271.19873047 C-269.06520241 262.9011907 -274.73428845 254.61264083 -280.40722656 246.32666016 C-283.10560377 242.38497794 -285.80271729 238.44243121 -288.5 234.5 C-289.03496094 233.71818359 -289.56992187 232.93636719 -290.12109375 232.13085938 C-292.8547284 228.13580054 -295.58791762 224.14043814 -298.3203125 220.14453125 C-298.86792236 219.34394287 -299.41553223 218.54335449 -299.97973633 217.71850586 C-301.06607552 216.12986174 -302.15186142 214.54083912 -303.23706055 212.95141602 C-305.8946414 209.06206494 -308.56492926 205.18260169 -311.26171875 201.3203125 C-311.77589355 200.58127686 -312.29006836 199.84224121 -312.81982422 199.08081055 C-313.79280939 197.68371587 -314.76952394 196.28920882 -315.75048828 194.89770508 C-319 190.22355764 -319 190.22355764 -319 188 C-317.2675 188.7425 -317.2675 188.7425 -315.5 189.5 C-306.41323332 192.50021206 -295.23710935 192.48869773 -286.51171875 188.4296875 C-282.17214858 185.95957447 -278.00649554 183.22611623 -273.8828125 180.4140625 C-271 179 -271 179 -269.01171875 179.45703125 C-266.19856021 181.61469654 -263.42815008 183.81419374 -260.6875 186.0625 C-246.78254632 197.189393 -231.02599104 205.71607175 -214 211 C-212.3604146 212.6395854 -212.83310367 214.55306693 -212.7890625 216.8125 C-212.76070313 217.80636719 -212.73234375 218.80023438 -212.703125 219.82421875 C-212.65181439 221.90999496 -212.60732784 223.99595239 -212.5703125 226.08203125 C-212.25617415 236.27843855 -209.97362465 245.25637096 -203 253 C-193.65110591 260.14651039 -185.23527931 260.186527 -173.85327148 260.18530273 C-171.57321517 260.18748972 -169.29364279 260.20567315 -167.01367188 260.22460938 C-165.55208497 260.22754383 -164.09049579 260.22952828 -162.62890625 260.23046875 C-161.30963135 260.23457764 -159.99035645 260.23868652 -158.63110352 260.24291992 C-150.94247012 259.72855226 -143.28486225 256.44661683 -137.9375 250.8359375 C-129.17310603 239.33267041 -130.47368948 224.8274967 -130 211 C-129.36803711 210.82621826 -128.73607422 210.65243652 -128.08496094 210.47338867 C-122.50046057 208.87804182 -117.39629582 206.99351236 -112.25 204.3125 C-111.57316162 203.96582275 -110.89632324 203.61914551 -110.19897461 203.26196289 C-95.79492526 195.84053492 -95.79492526 195.84053492 -82.8671875 186.15234375 C-81 185 -81 185 -79.1875 185.04296875 C-75.93853769 186.46438976 -73.05970315 188.40606965 -70.125 190.375 C-60.13560782 197.03459479 -52.26923051 199.52503051 -40.0625 198.75 C-29.45704726 196.15274627 -22.99662804 188.6512511 -17.41796875 179.7109375 C-16.53044922 178.24527344 -16.53044922 178.24527344 -15.625 176.75 C-14.70267578 175.26113281 -14.70267578 175.26113281 -13.76171875 173.7421875 C-12.63016972 171.914872 -11.50400558 170.08420186 -10.38525391 168.24902344 C-9.29337908 166.47631442 -8.154881 164.7323215 -7 163 C-4.60231851 153.40927403 -5.4082037 143.77572531 -10 135 C-13.99445778 129.30789766 -19.05173726 125.92254979 -24.8125 122.125 C-26.13797852 121.23554688 -26.13797852 121.23554688 -27.49023438 120.328125 C-29.6548801 118.87722733 -31.82471601 117.43487717 -34 116 C-33.48274444 110.99986295 -32.65829407 106.76277484 -31 102 C-27.31663809 84.60634655 -27.58134983 65.56207119 -31.34375 48.23046875 C-32 45 -32 45 -32 41 C-31.48614746 40.72325439 -30.97229492 40.44650879 -30.44287109 40.16137695 C-28.0830889 38.88535248 -25.7290714 37.59902739 -23.375 36.3125 C-22.16263672 35.65991211 -22.16263672 35.65991211 -20.92578125 34.99414062 C-11.83782642 30.00684834 -5.82399573 24.94001375 -2 15 C-0.86262558 10.06281664 -0.39489978 5.04518514 0 0 Z " fill="#5A9738" transform="translate(484,238)"/>
<path d="M0 0 C9.23730859 6.69436792 15.71648622 16.08459283 17.54296875 27.45703125 C18.5586477 38.92920826 15.97764105 49.00834479 9.26171875 58.4140625 C5.97627752 62.31925742 2.14309016 66.15697055 -2.45703125 68.45703125 C-2.45703125 69.44703125 -2.45703125 70.43703125 -2.45703125 71.45703125 C-1.70679688 71.74835938 -0.9565625 72.0396875 -0.18359375 72.33984375 C21.48760884 81.01924227 35.86613828 95.2353976 46.1328125 116.1328125 C49.46293075 123.98303585 51.36963248 132.45372559 48.8203125 140.83203125 C45.67344936 147.55892897 40.49300911 152.69125238 33.54296875 155.45703125 C29.94927245 156.02056501 26.4096013 156.0042892 22.77758789 155.97460938 C21.71652328 155.98161865 20.65545868 155.98862793 19.5622406 155.99584961 C16.06726635 156.01340293 12.57310699 156.00181476 9.078125 155.98828125 C6.64106593 155.99097711 4.20400791 155.99486031 1.76695251 155.99987793 C-3.33637754 156.00576958 -8.43942719 155.99722109 -13.54272461 155.97851562 C-20.07404655 155.95573892 -26.60471051 155.96884391 -33.13600826 155.99280548 C-38.16757636 156.00728251 -43.19898935 156.00264841 -48.23056221 155.99229431 C-50.63824098 155.98963169 -53.04593396 155.99288038 -55.45359612 156.00221252 C-58.82352693 156.01240763 -62.19240327 155.99683355 -65.56225586 155.97460938 C-66.55107758 155.9827063 -67.53989929 155.99080322 -68.5586853 155.99914551 C-75.82575124 155.91066967 -81.18227404 154.32672268 -86.69921875 149.4921875 C-87.50746094 148.51572266 -87.50746094 148.51572266 -88.33203125 147.51953125 C-88.88632813 146.87113281 -89.440625 146.22273437 -90.01171875 145.5546875 C-94.31819275 139.30448064 -94.52732808 132.80045675 -93.45703125 125.45703125 C-87.37585882 104.94245882 -72.97601838 86.9637353 -54.29296875 76.72265625 C-45.66621866 72.31482774 -45.66621866 72.31482774 -41.45703125 71.45703125 C-41.45703125 70.46703125 -41.45703125 69.47703125 -41.45703125 68.45703125 C-43.02449907 67.0108932 -43.02449907 67.0108932 -45.08203125 65.70703125 C-53.39237416 59.71244527 -58.54820651 52.04400555 -61.07421875 42.00390625 C-62.8792915 29.99464676 -60.8128088 20.27238241 -54.20703125 10.14453125 C-41.67838643 -6.71170517 -17.81489215 -11.1874124 0 0 Z " fill="#62B045" transform="translate(334.45703125,226.54296875)"/>
</svg>
